<?xml version="1.0" encoding="iso-8859-1"?>
<!-- Uploaded to: SVG Repo, www.svgrepo.com, Generator: SVG Repo Mixer Tools -->
<svg version="1.1" id="Layer_1" xmlns="http://www.w3.org/2000/svg" xmlns:xlink="http://www.w3.org/1999/xlink" 
	 viewBox="0 0 333 333" xml:space="preserve">
<g>
	<path style="fill:#28D2E4;" d="M325.5,301.395h-303c-8.284,0-15-6.716-15-15V83.377c0-8.284,6.716-15,15-15h288
		c8.284,0,15,6.716,15,15V301.395z"/>
	<path style="fill:#13829B;" d="M166.5,31.605L166.5,31.605c-15.739,0-28.499,12.759-28.499,28.499v8.274h56.997v-8.274
		C194.999,44.364,182.239,31.605,166.5,31.605z"/>
	<rect x="236.5" y="249.194" style="fill:#13829B;" width="89" height="52.201"/>
	<g>
		<polygon style="fill:#FFDB77;" points="236.5,249.194 295.5,249.194 295.5,98.377 37.5,98.377 37.5,271.395 236.5,271.395 		"/>
		<path style="fill:#22313F;" d="M310.5,60.877H202.498v-0.773c0-19.85-16.149-35.999-35.998-35.999s-35.999,16.149-35.999,35.999
			v0.773H22.5C10.093,60.877,0,70.97,0,83.377v203.018c0,12.407,10.093,22.5,22.5,22.5c10.363,0,278.023,0,303,0
			c4.142,0,7.5-3.358,7.5-7.5c0-13.257,0-209.912,0-218.018C333,70.97,322.907,60.877,310.5,60.877z M145.501,60.104
			c0-11.579,9.42-20.999,20.999-20.999c10.901,0,20.998,8.478,20.998,21.772h-41.997V60.104z M15,286.395V83.377
			c0-4.136,3.364-7.5,7.5-7.5c13.222,0,275.899,0,288,0c4.136,0,7.5,3.364,7.5,7.5v158.317h-15V98.377c0-4.142-3.358-7.5-7.5-7.5
			h-258c-4.142,0-7.5,3.358-7.5,7.5v173.018c0,4.142,3.358,7.5,7.5,7.5H229v14.999H22.5C18.364,293.895,15,290.53,15,286.395z
			 M236.5,241.694c-4.142,0-7.5,3.358-7.5,7.5v14.701H45V105.877h243v135.817H236.5z M318,293.895h-74v-22.499v-14.701h74V293.895z"
			/>
	</g>
</g>
</svg>